<?xml version="1.0" encoding="UTF-8"?>
<svg id="Layer_1" data-name="Layer 1" xmlns="http://www.w3.org/2000/svg" xmlns:xlink="http://www.w3.org/1999/xlink" viewBox="0 0 2262.75 432.14">
  <defs>
    <style>
      .cls-1 {
        fill: #93c0d3;
      }

      .cls-2 {
        fill: #eed079;
      }

      .cls-3 {
        fill: url(#linear-gradient);
      }
    </style>
    <linearGradient id="linear-gradient" x1="55.83" y1="86.79" x2="536.78" y2="567.75" gradientTransform="translate(0 -142)" gradientUnits="userSpaceOnUse">
      <stop offset="0" stop-color="#dea327"/>
      <stop offset=".23" stop-color="#dea429"/>
      <stop offset=".36" stop-color="#dfa82e"/>
      <stop offset=".46" stop-color="#e1af3c"/>
      <stop offset=".55" stop-color="#e6ba50"/>
      <stop offset=".63" stop-color="#ebc769"/>
      <stop offset=".7" stop-color="#f1d989"/>
      <stop offset=".76" stop-color="#f8ecac"/>
      <stop offset=".78" stop-color="#faf1b6"/>
      <stop offset=".81" stop-color="#faed9e"/>
      <stop offset=".86" stop-color="#fae57b"/>
      <stop offset=".92" stop-color="#fadf60"/>
      <stop offset=".96" stop-color="#fadc4f"/>
      <stop offset="1" stop-color="#fada4b"/>
    </linearGradient>
  </defs>
  <g>
    <path class="cls-1" d="M711.53,370.68l77.41-289.58h54.76l77.41,289.58h-39.65l-63.43-254.5h-3.4l-63.43,254.5h-39.67,0ZM747.4,300.12v-38.75h135.94v38.75h-135.94Z"/>
    <path class="cls-1" d="M959.81,370.68V81.1h39.27v289.58h-39.27ZM959.81,119.85v-38.75h177.48v38.75h-177.48ZM959.81,245.06v-38.75h143.49v38.75h-143.49ZM959.81,370.68v-38.75h177.48v38.75h-177.48Z"/>
    <path class="cls-1" d="M1182.6,370.68V81.1h39.27v289.58h-39.27ZM1219.23,370.68v-38.75h28.32c27.57,0,48.3-8.49,62.21-25.49,13.9-16.99,20.86-42.48,20.86-76.47,0-36.84-6.96-64.41-20.86-82.69-13.91-18.28-34.64-27.43-62.21-27.43h-27.57l-4.53-38.75h32.09c81.82,0,122.72,49.62,122.72,148.87,0,93.81-40.91,140.71-122.72,140.71h-28.32.01Z"/>
    <path class="cls-1" d="M1391.23,370.68l77.41-289.58h54.76l77.41,289.58h-39.65l-63.43-254.5h-3.4l-63.43,254.5h-39.67,0ZM1427.1,300.12v-38.75h135.94v38.75h-135.94Z"/>
    <path class="cls-1" d="M1639.51,370.68V81.1h39.27v289.58h-39.27,0ZM1639.51,370.68v-38.75h177.48v38.75h-177.48Z"/>
    <path class="cls-1" d="M1948.4,374.76c-57.4,0-86.1-32.35-86.1-97.07V81.1h39.27v196.59c0,19.31,3.84,33.85,11.52,43.64,7.68,9.79,19.69,14.68,36.06,14.68,31.72,0,47.58-19.44,47.58-58.32V81.1h39.27v196.59c0,32.36-7.43,56.62-22.28,72.8s-36.63,24.27-65.32,24.27h.01-.01Z"/>
    <path class="cls-1" d="M2166.47,374.76c-15.23,0-29.49-1.33-42.77-3.98-13.28-2.65-25.58-6.63-36.91-11.93l4.9-41.19c13.85,6.39,27.21,11.25,40.12,14.58,12.9,3.33,25.45,5,37.67,5,17.62,0,30.71-3.33,39.27-9.99s12.83-16.79,12.83-30.38c0-17.26-8.19-29.91-24.54-37.93l-46.44-22.84c-18.26-8.97-32.26-19.78-42.01-32.42s-14.63-28.35-14.63-47.11c0-25.29,7.04-44.86,21.15-58.73,14.1-13.87,34.05-20.8,59.85-20.8,18,0,33.92,2.85,47.77,8.56s27.19,15.02,40.02,27.94l-26.43,28.96c-11.07-9.79-21.43-16.89-31.06-21.31s-19.67-6.63-30.12-6.63c-12.96,0-23.01,3.36-30.12,10.09s-10.66,16.69-10.66,29.88c0,9.38,2.32,17.03,6.99,22.94,4.66,5.91,11.52,11.18,20.58,15.8l39.27,19.98c19.89,10.06,34.99,21.41,45.32,34.06,10.32,12.64,15.48,28.89,15.48,48.74,0,26.24-7.9,45.92-23.69,59.04s-39.74,19.68-71.84,19.68h0Z"/>
  </g>
  <path class="cls-2" d="M625.55,91.73l-9.64,29.49c-2.25-2.15-4.57-4.23-6.97-6.23-7.39-6.23-15.35-11.73-23.78-16.45-14.23-7.97-26.13-11.59-28.7-12.36-8.48-2.53-15.87-3.81-21.38-4.5,6.79-8.79,13.57-17.57,20.36-26.36,5.56-7.2,15.46-9.42,23.57-5.28l37.17,18.98c8.29,4.23,12.27,13.87,9.38,22.72h0Z"/>
  <path class="cls-2" d="M661.92,225.89c8.84-4.46,17.67-8.91,26.51-13.37,9.27-4.67,13.74-15.4,10.55-25.28l-11.55-35.65c-3.23-9.96-13.29-16.04-23.6-14.25l-29.64,5.12c6.19,8.85,13.76,21.66,19.47,38.28,6.17,17.98,7.91,33.89,8.27,45.16h-.01Z"/>
  <path class="cls-2" d="M659.66,252.91c7.85,6.06,15.7,12.13,23.55,18.19,8.14,6.29,10.57,17.53,5.75,26.62l-18.24,34.39c-4.72,8.91-15.08,13.23-24.74,10.33-9.53-2.86-19.05-5.72-28.58-8.58,8.41-8.35,19.82-21.63,29.05-40.4,7.69-15.63,11.36-29.95,13.21-40.55h0Z"/>
  <path class="cls-2" d="M539.18,375.58c8.69-2.33,18.42-5.47,28.82-9.75,10.51-4.32,19.71-9,27.58-13.51,1.44,9.73,2.88,19.46,4.31,29.19,1.5,10.15-4.55,19.9-14.31,23.06l-37.39,12.11c-9.75,3.16-20.35-1.18-25.09-10.25l-1.52-2.91c3.51-3.09,8.22-7.95,12.19-14.94,2.63-4.63,4.25-8.97,5.28-12.52.05-.16.09-.32.13-.47-1.06,3.8-2.87,8.75-6.02,14.04-2.22,3.73-5.56,8.82-11.58,13.9"/>
  <path class="cls-2" d="M492.96,54.26l11.71,26.28c-6.89.47-14.8,1.45-23.43,3.35-6.8,1.49-12.93,3.3-18.34,5.18-.67.23-1.36.36-2.07.36l-41.47.43-1.91-12.17c-1.43-9.12,3.91-17.94,12.66-20.89l38.82-13.08c9.53-3.21,19.94,1.35,24.04,10.54h-.01Z"/>
  <path class="cls-1" d="M461.9,89.41c11.09-3.98,27.88-8.61,48.71-9.18,7.87-.22,22.32.37,39.87,4.05,13.12,2.75,40.39,10.32,66.24,32.99,30.44,26.71,40.98,58.63,44.46,71.46,4,13.94,9.75,41.33,2.35,74.17-4.65,20.65-12.93,36.47-19.54,46.87-5.46,8.59-20.23,29.42-47.4,45.8-22.9,13.81-44.51,18.33-57.42,20,2.29-4.01,6.54-12.76,6.3-24.43-.15-7.46-2.08-13.4-3.66-17.17,7.36-1.95,44.84-12.67,67.25-50.93,20.62-35.2,14.49-69.84,12.79-78.14-2.4-9.88-7.88-26.66-21.21-43.24-10.23-12.72-21.36-20.68-28.99-25.28-9.8-5.89-18.02-8.74-23.62-10.64,0,0-11.17-3.21-33.97-5.56l-1.81-.19s-.3-.51-.32-.55c-.53-.91-1.43-2.06-1.43-2.06-3.79-4.82-5.28-6.43-5.28-6.43-2.87-2.87-7.48-6.97-9.8-8.65-6.37-4.62-18.06-10.06-33.51-12.9h0Z"/>
  <path class="cls-3" d="M546.17,373.33c-3.45,11.04-10.34,20.87-18.32,29.13v.02h-.02c-4.86,3.75-12.21,9.01-21.73,14.43-11.52,6.53-30.89,15.86-32.87,12.93-1.62-2.4,10.78-9.94,19.31-22.05,25.63-36.45,9.9-87.8,8.72-87.76-.8.02,4.25,24.68-9.79,52.25-.25.48-2.46,4.78-5.35,9.12-23.63,35.38-80.51,54.46-82.72,50.14-.91-1.73,7.48-6.36,18.26-15.33,55.01-45.76,72.34-120.88,69.03-122.38-2.57-1.16-11.73,45.3-54.67,82.26-51.09,43.95-119.2,47.97-119.94,45.51-.46-1.58,27.31-4.95,57.45-23.92,70.7-44.54,90.2-134.8,85-137.39-5.22-2.59-26.64,87.63-103.38,121.77-65.41,29.1-140.3,3.85-140.15-2.53.13-5.14,48.69,5.29,102.48-19.99,74.45-34.96,109.68-115.18,107.05-117.16-1.73-1.33-18.09,33.23-54.67,58.34-97.09,66.68-247.18,5.45-246.27-.76.65-4.59,84.49,25.65,165.4-17.14,47.53-25.15,76.68-66.32,73.98-69.39-2.97-3.41-40.18,45.11-96.96,59.28-112.25,27.99-235.83-94.58-232.5-100.14,2.02-3.39,49.05,40.27,126.82,44.69,81.44,4.61,146.77-36.6,145.21-41.51-1.64-5.12-73.86,36.79-157.61,16.53C56.11,170.08-1.83,84.73,3.08,78.68c3.33-4.04,34.29,28.77,96.83,49.51,74.95,24.85,140.19,14.13,140.36,10.78.21-3.83-86.7,10.19-160.81-40.98C27.66,62.25-4.01,4.23.41.21c1.9-1.71,9.41,7.29,29.86,20.22,31.53,19.94,60.61,28.3,98.43,39.19,0,0,20.39,5.88,38.96,9.98,86.66,19.16,288.58,18.53,297.76,18.49,13.31.86,24.18,4.13,33.67,12.45,3.52,3.07,17.08,14.95,20.2,33.15,1.45,8.44.53,17.52-.76,29.82-.88,8.53-2.08,15.54-3.01,20.34-2,10.02-4.06,23.94-4.06,40.52,0,6.17.29,12.7.97,19.52,6.8,68.65,45.66,91.25,33.74,129.43h0Z"/>
</svg>