<?xml version="1.0" encoding="UTF-8"?>
<svg id="Layer_1" data-name="Layer 1" xmlns="http://www.w3.org/2000/svg" xmlns:xlink="http://www.w3.org/1999/xlink" viewBox="0 0 332.39 205.19">
  <defs>
    <style>
      .cls-1 {
        fill: #93c0d3;
      }

      .cls-2 {
        fill: #eed079;
      }

      .cls-3 {
        fill: url(#linear-gradient);
      }
    </style>
    <linearGradient id="linear-gradient" x1="26.51" y1="-103.71" x2="254.88" y2="-332.08" gradientTransform="translate(0 -129.92) scale(1 -1)" gradientUnits="userSpaceOnUse">
      <stop offset="0" stop-color="#dda226"/>
      <stop offset=".23" stop-color="#dda328"/>
      <stop offset=".36" stop-color="#dfa730"/>
      <stop offset=".46" stop-color="#e1af3d"/>
      <stop offset=".55" stop-color="#e6ba51"/>
      <stop offset=".63" stop-color="#ebc86a"/>
      <stop offset=".7" stop-color="#f1d989"/>
      <stop offset=".76" stop-color="#f9edad"/>
      <stop offset=".78" stop-color="#fbf2b6"/>
      <stop offset=".81" stop-color="#fbed9f"/>
      <stop offset=".86" stop-color="#fbe57a"/>
      <stop offset=".92" stop-color="#fbdf5f"/>
      <stop offset=".96" stop-color="#fbdc4f"/>
      <stop offset="1" stop-color="#fbdb4a"/>
    </linearGradient>
  </defs>
  <g id="cog">
    <path class="cls-2" d="M297.03,43.56l-4.58,14c-1.07-1.02-2.17-2.01-3.31-2.96-3.51-2.96-7.29-5.57-11.29-7.81-6.76-3.78-12.41-5.51-13.63-5.87-4.03-1.2-7.53-1.81-10.15-2.14,3.22-4.17,6.45-8.34,9.67-12.52,2.64-3.42,7.34-4.47,11.19-2.51l17.65,9.01c3.94,2.01,5.83,6.59,4.45,10.79h0Z"/>
    <path class="cls-2" d="M314.3,107.26c4.2-2.12,8.39-4.23,12.59-6.35,4.4-2.22,6.53-7.31,5.01-12l-5.48-16.93c-1.53-4.73-6.31-7.61-11.21-6.77l-14.07,2.43c2.94,4.2,6.54,10.28,9.24,18.18,2.93,8.54,3.76,16.09,3.93,21.44h0Z"/>
    <path class="cls-2" d="M313.22,120.09c3.73,2.88,7.45,5.76,11.18,8.64s5.02,8.32,2.73,12.64l-8.66,16.33c-2.24,4.23-7.16,6.28-11.75,4.91s-9.05-2.72-13.57-4.08c3.99-3.96,9.41-10.27,13.79-19.18,3.65-7.42,5.39-14.22,6.27-19.25h.01Z"/>
    <path class="cls-2" d="M256.01,178.34c4.13-1.11,8.75-2.6,13.68-4.63,4.99-2.05,9.36-4.27,13.1-6.41.68,4.62,1.37,9.24,2.05,13.86s-2.16,9.45-6.79,10.95l-17.75,5.75c-4.63,1.5-9.66-.56-11.91-4.87l-.72-1.38c1.67-1.47,3.9-3.78,5.79-7.09,1.25-2.2,2.02-4.26,2.51-5.95.02-.08.04-.15.06-.23-.51,1.8-1.36,4.15-2.86,6.67-1.06,1.77-2.64,4.19-5.5,6.6"/>
    <path class="cls-2" d="M234.07,25.76l5.56,12.48c-3.27.22-7.03.69-11.13,1.59-3.23.71-6.14,1.57-8.71,2.46-.32.11-.65.17-.98.17l-19.69.2-.91-5.78c-.68-4.33,1.86-8.52,6.01-9.92l18.43-6.21c4.53-1.52,9.47.64,11.41,5.01h.01Z"/>
    <path class="cls-1" d="M219.32,42.46c5.26-1.89,13.24-4.09,23.13-4.36,3.74-.1,10.6.18,18.93,1.92,6.23,1.3,19.18,4.9,31.45,15.67,14.46,12.68,19.46,27.84,21.11,33.93,1.9,6.62,4.63,19.62,1.12,35.22-2.21,9.81-6.14,17.32-9.28,22.25-2.59,4.08-9.61,13.97-22.51,21.75-10.87,6.56-21.14,8.7-27.26,9.5,1.09-1.9,3.11-6.06,2.99-11.6-.07-3.54-.99-6.36-1.74-8.15,3.5-.93,21.29-6.02,31.93-24.18,9.79-16.72,6.88-33.16,6.07-37.1-1.14-4.69-3.74-12.66-10.07-20.53-4.86-6.04-10.14-9.82-13.77-12-4.65-2.8-8.56-4.15-11.22-5.05,0,0-5.3-1.52-16.13-2.64l-.86-.09s-.14-.24-.15-.26c-.25-.43-.68-.98-.68-.98-1.8-2.29-2.51-3.05-2.51-3.05-1.36-1.36-3.55-3.31-4.65-4.11-3.02-2.2-8.58-4.78-15.91-6.13h0Z"/>
  </g>
  <g id="feather">
    <path class="cls-3" d="M259.33,177.27c-1.64,5.24-4.91,9.91-8.7,13.83h0c-2.31,1.79-5.8,4.29-10.32,6.86-5.47,3.1-14.67,7.53-15.61,6.14-.77-1.14,5.12-4.72,9.17-10.47,12.17-17.31,4.7-41.69,4.14-41.67-.38,0,2.02,11.72-4.65,24.81-.12.23-1.17,2.27-2.54,4.33-11.22,16.8-38.23,25.86-39.28,23.81-.43-.82,3.55-3.02,8.67-7.28,26.12-21.73,34.35-57.4,32.78-58.11-1.22-.55-5.57,21.51-25.96,39.06-24.26,20.87-56.6,22.78-56.95,21.61-.22-.75,12.97-2.35,27.28-11.36,33.57-21.15,42.83-64.01,40.36-65.24-2.48-1.23-12.65,41.61-49.09,57.82-31.06,13.82-66.62,1.83-66.55-1.2.06-2.44,23.12,2.51,48.66-9.49,35.35-16.6,52.08-54.69,50.83-55.63-.82-.63-8.59,15.78-25.96,27.7-46.1,31.66-117.37,2.59-116.94-.36.31-2.18,40.12,12.18,78.54-8.14,22.57-11.94,36.41-31.49,35.13-32.95-1.41-1.62-19.08,21.42-46.04,28.15-53.3,13.29-111.98-44.91-110.4-47.55.96-1.61,23.29,19.12,60.22,21.22,38.67,2.19,69.69-17.38,68.95-19.71-.78-2.43-35.07,17.47-74.84,7.85C26.63,80.76-.88,40.23,1.45,37.36c1.58-1.92,16.28,13.66,45.98,23.51,35.59,11.8,66.57,6.71,66.65,5.12.1-1.82-41.17,4.84-76.36-19.46C13.13,29.56-1.91,2.01.19.1c.9-.81,4.47,3.46,14.18,9.6,14.97,9.47,28.78,13.44,46.74,18.61,0,0,9.68,2.79,18.5,4.74,41.15,9.1,137.03,8.8,141.39,8.78,6.32.41,11.48,1.96,15.99,5.91,1.67,1.46,8.11,7.1,9.59,15.74.69,4.01.25,8.32-.36,14.16-.42,4.05-.99,7.38-1.43,9.66-.95,4.76-1.93,11.37-1.93,19.24,0,2.93.14,6.03.46,9.27,3.23,32.6,21.68,43.33,16.02,61.46h-.01Z"/>
  </g>
</svg>